<svg role="img" viewBox="0 0 64 64" xmlns="http://www.w3.org/2000/svg" id="Hackaday--Streamline-Simple-Icons" height="64" width="64">
  <desc>
    Hackaday Streamline Icon: https://streamlinehq.com
  </desc>
  <title>Hackaday</title>
  <path d="M0 10.997333333333332c0 -0.5439999999999999 0.056 -1.0693333333333332 0.15999999999999998 -1.5866666666666664l5.215999999999999 4.624 5.717333333333333 -6.346666666666666L5.989333333333333 3.1466666666666665c0.6906666666666667 -0.19199999999999998 1.4133333333333333 -0.304 2.1653333333333333 -0.304a8.165333333333333 8.165333333333333 0 0 1 8.154666666666666 8.098666666666666v0.056c0 0.4053333333333333 -0.032 0.8106666666666666 -0.088 1.2l6.359999999999999 5.632a17.909333333333333 17.909333333333333 0 0 0 -5.367999999999999 6.773333333333333L10.618666666666666 18.76533333333333a8.101333333333333 8.101333333333333 0 0 1 -2.464 0.3866666666666666A8.16 8.16 0 0 1 0 10.997333333333332zm55.84533333333333 33.85066666666667c-0.816 0 -1.6026666666666665 0.12 -2.3466666666666667 0.344l-6.154666666666666 -5.450666666666667a18.298666666666666 18.298666666666666 0 0 1 -4.850666666666666 7.215999999999999l5.314666666666667 4.706666666666666a8.133333333333333 8.133333333333333 0 0 0 -0.11733333333333332 1.3386666666666667 8.16 8.16 0 0 0 10.493333333333332 7.810666666666666l-5.311999999999999 -4.72 5.706666666666667 -6.306666666666667 5.282666666666667 4.693333333333333c0.09066666666666667 -0.48266666666666663 0.13866666666666666 -0.9706666666666666 0.13866666666666666 -1.4773333333333334v-0.06933333333333333a8.152 8.152 0 0 0 -8.154666666666666 -8.085333333333333zm-9.058666666666666 -20.24533333333333 6.594666666666666 -5.8373333333333335c0.7786666666666666 0.248 1.6026666666666665 0.3866666666666666 2.464 0.3866666666666666A8.16 8.16 0 0 0 63.84 9.413333333333332l-5.215999999999999 4.624 -5.717333333333333 -6.346666666666666 5.103999999999999 -4.541333333333333a8.130666666666666 8.130666666666666 0 0 0 -2.1653333333333333 -0.304 8.165333333333333 8.165333333333333 0 0 0 -8.154666666666666 8.098666666666666v0.056c0 0.4053333333333333 0.032 0.8106666666666666 0.088 1.2l-6.359999999999999 5.632a17.909333333333333 17.909333333333333 0 0 1 5.367999999999999 6.773333333333333zm-30.133333333333333 15.138666666666666 -6.151999999999999 5.450666666666667A8.152 8.152 0 0 0 0 52.93333333333334v0.06933333333333333c0 0.5066666666666666 0.047999999999999994 0.9946666666666666 0.13866666666666666 1.4773333333333334l5.285333333333333 -4.693333333333333 5.706666666666667 6.306666666666667 -5.314666666666667 4.72a8.16 8.16 0 0 0 10.493333333333332 -7.810666666666666 8.133333333333333 8.133333333333333 0 0 0 -0.11733333333333332 -1.3386666666666667l5.314666666666667 -4.706666666666666a18.298666666666666 18.298666666666666 0 0 1 -4.8533333333333335 -7.215999999999999zm23.922666666666665 7.085333333333333a2.8693333333333335 2.8693333333333335 0 1 1 -5.229333333333333 1.1306666666666665h-0.512a2.8693333333333335 2.8693333333333335 0 1 1 -5.671999999999999 0h-0.39999999999999997A2.9466666666666663 2.9466666666666663 0 0 1 25.866666666666664 51.28c-1.6106666666666665 0 -2.9173333333333336 -1.3333333333333333 -2.9173333333333336 -2.973333333333333 0 -0.5599999999999999 0.152 -1.08 0.416 -1.5253333333333332 -3.9813333333333336 -3.045333333333333 -6.597333333333333 -8.136 -6.597333333333333 -13.901333333333334 0 -9.325333333333333 6.824 -16.88533333333333 15.234666666666666 -16.88533333333333s15.234666666666666 7.56 15.234666666666666 16.88533333333333c0 5.794666666666666 -2.6426666666666665 10.909333333333333 -6.658666666666666 13.949333333333332zm-11.184 -15.770666666666665a5.32 5.32 0 0 0 -1.4906666666666668 -1.76 4.810666666666666 4.810666666666666 0 0 0 -2.448 -0.704 3.8666666666666663 3.8666666666666663 0 0 0 -0.8506666666666667 0.09599999999999999c-1.08 0.13333333333333333 -1.992 0.872 -2.6213333333333333 1.7253333333333334 -0.5519999999999999 0.6853333333333333 -0.9813333333333333 1.5173333333333332 -0.992 2.413333333333333 -0.08533333333333333 0.7413333333333334 0.064 1.4826666666666668 0.19999999999999998 2.2079999999999997 0.176 0.8586666666666667 0.7813333333333332 1.5573333333333332 1.4666666666666668 2.064 0.3173333333333333 0.2533333333333333 0.7733333333333332 0.6026666666666667 1.1733333333333333 0.30933333333333335 0.26666666666666666 -0.35733333333333334 0.042666666666666665 -0.88 0.2853333333333333 -1.2746666666666666a1.3333333333333333 1.3333333333333333 0 0 1 0.688 -0.8693333333333333c0.7013333333333334 -0.352 1.4053333333333333 -0.6986666666666667 2.1546666666666665 -0.9466666666666665 0.608 -0.17866666666666667 1.1093333333333333 -0.584 1.6266666666666665 -0.9306666666666665 0.6799999999999999 -0.5253333333333333 1.1306666666666665 -1.488 0.8079999999999999 -2.3306666666666667zm2.6559999999999997 6.2c-0.744 -0.018666666666666665 -1.68 3.2986666666666666 -1.5306666666666664 4.746666666666666 0.4666666666666666 1.92 0.6319999999999999 -1.3466666666666667 1.5306666666666664 -1.3493333333333333 0.8613333333333333 0.03733333333333333 0.7333333333333334 3.3466666666666662 1.4133333333333333 1.3439999999999999 0.208 -1.3333333333333333 -0.5973333333333333 -4.72 -1.4133333333333333 -4.741333333333333zm10.762666666666664 -2.221333333333333c0.13599999999999998 -0.7253333333333334 0.2853333333333333 -1.4666666666666668 0.19999999999999998 -2.2079999999999997 -0.010666666666666666 -0.896 -0.44 -1.728 -0.992 -2.413333333333333 -0.6293333333333333 -0.8533333333333333 -1.5413333333333332 -1.5893333333333333 -2.6213333333333333 -1.7253333333333334a3.8666666666666663 3.8666666666666663 0 0 0 -0.8506666666666667 -0.09599999999999999c-0.8533333333333333 -0.0026666666666666666 -1.7173333333333334 0.26666666666666666 -2.448 0.704 -0.6266666666666666 0.456 -1.1199999999999999 1.0826666666666667 -1.4906666666666668 1.76 -0.32266666666666666 0.8426666666666667 0.128 1.8053333333333335 0.8079999999999999 2.3306666666666667 0.5173333333333333 0.3466666666666667 1.0186666666666666 0.7519999999999999 1.6266666666666665 0.9333333333333332 0.7466666666666667 0.24533333333333332 1.4533333333333334 0.592 2.1546666666666665 0.944a1.3333333333333333 1.3333333333333333 0 0 1 0.688 0.8693333333333333c0.24266666666666664 0.39199999999999996 0.018666666666666665 0.9173333333333332 0.2826666666666666 1.2746666666666666 0.4026666666666666 0.29333333333333333 0.8586666666666667 -0.056 1.1733333333333333 -0.30933333333333335 0.688 -0.5066666666666666 1.2933333333333332 -1.2053333333333334 1.4693333333333334 -2.064z" fill="#000000" stroke-width="2.6667"></path>
</svg>